HIERARCHY
ROOT Hips
{
	OFFSET 0.0000 0.0000 0.0000
	CHANNELS 6 Xposition Yposition Zposition Zrotation Xrotation Yrotation
	JOINT LeftFoot
	{
		OFFSET 2.5327 -6.9585 0.0000
		CHANNELS 3 Zrotation Xrotation Yrotation
	}
	JOINT RightFoot
	{
		OFFSET -2.4384 -6.6995 0.0000
		CHANNELS 3 Zrotation Xrotation Yrotation
	}
}
MOTION
Frames: 96
Frame Time: 0.008333
8.8534 17.0863 -0.0001 -2.7602 5.3573 3.4738 -0.1057 -12.7892 10.2688 -0.0530 -8.1558 10.4668 
8.8495 17.0804 0.1703 -3.0715 5.4417 3.2337 -0.0527 -13.2606 9.9442 -0.0890 -8.6993 10.4962 
8.8446 17.0567 0.3367 -3.2545 5.6730 2.9018 -0.0100 -13.6635 9.7104 -0.1351 -9.2850 10.3947 
8.8481 17.0555 0.5175 -3.3638 5.8617 2.4866 -0.0491 -13.2538 9.8977 -0.1657 -9.7052 10.4079 
8.8550 17.0470 0.7100 -3.5106 5.8706 2.0295 0.0046 -13.7273 9.5800 -0.1902 -10.2479 10.8547 
8.8585 17.0366 0.8957 -3.8383 5.8772 1.7192 0.1568 -15.2052 8.8815 -0.2296 -11.0001 11.3992 
8.8609 17.0276 1.0699 -4.0842 5.9801 1.4688 0.2197 -15.8873 8.7051 -0.2464 -11.3399 11.6911 
8.8697 17.0229 1.2615 -4.0372 6.0712 1.0531 0.2173 -15.8169 8.6720 -0.2031 -10.9385 11.8939 
8.8860 17.0253 1.4695 -3.8693 6.0103 0.5575 0.2619 -15.9757 8.2626 -0.1237 -10.2608 12.3771 
8.8922 17.0227 1.6528 -4.1719 6.0697 0.1034 0.3596 -16.6078 7.6318 -0.1111 -10.1011 12.3654 
8.8872 17.0177 1.8180 -4.8131 6.2934 -0.2801 0.4150 -16.9423 7.2560 -0.1634 -10.3137 11.6152 
8.8831 17.0258 1.9950 -5.0402 6.3460 -0.6146 0.3769 -16.5800 7.3738 -0.2010 -10.3762 10.8393 
8.8843 17.0326 2.1779 -5.1934 6.4237 -0.8498 0.3847 -16.4931 7.1755 -0.1850 -10.0622 10.6155 
8.8954 17.0243 2.3708 -5.4361 6.6529 -1.1164 0.4160 -16.6192 6.8842 -0.1049 -9.2923 11.1346 
8.9110 17.0170 2.5717 -5.3986 6.9221 -1.6399 0.4107 -16.5882 6.9222 -0.0327 -8.7287 11.7950 
8.9238 17.0057 2.7627 -5.3334 7.2143 -2.1606 0.4003 -16.5317 7.0043 0.0156 -8.3791 12.2488 
8.9283 16.9864 2.9437 -5.5059 7.3999 -2.4365 0.3732 -16.2745 7.0964 0.0417 -8.1565 12.4395 
8.9328 16.9687 3.1331 -5.6881 7.4976 -2.6960 0.3372 -15.8891 7.1822 0.0568 -8.0937 12.6341 
8.9435 16.9529 3.3338 -5.8356 7.6395 -3.1114 0.3243 -15.4163 6.8650 0.1002 -7.6852 12.8919 
8.9536 16.9353 3.5281 -6.2054 7.8649 -3.5618 0.3074 -14.8337 6.4926 0.1657 -6.8967 13.0946 
8.9757 16.9182 3.7443 -6.5125 7.8909 -4.1890 0.2750 -15.4403 7.5761 0.2801 -5.7567 13.7482 
8.9771 16.8936 3.9282 -6.3868 8.1787 -4.1152 0.2536 -15.5275 7.9443 0.2880 -5.3119 13.4683 
9.0004 16.8805 4.1541 -6.3968 8.0612 -4.8371 0.2256 -16.1418 8.8619 0.3082 -4.5870 13.1625 
9.0172 16.8677 4.3646 -6.7237 8.1107 -5.2339 0.2928 -14.9628 6.8445 0.3296 -3.6110 12.7427 
9.0275 16.8600 4.5687 -6.7292 8.3290 -5.4194 0.3479 -14.8064 5.8319 0.3411 -2.1842 11.9910 
9.0353 16.8537 4.7859 -6.6400 8.2267 -5.8914 0.4760 -15.9170 5.1207 0.3187 -0.0593 10.6156 
9.0448 16.8425 5.0129 -6.6176 8.0936 -6.2531 0.5213 -16.2249 4.7784 0.3322 0.3520 10.6927 
9.0567 16.8232 5.2243 -7.1096 8.2943 -6.4097 0.5653 -16.1445 3.8745 0.3256 0.9994 10.3949 
9.0708 16.7947 5.4343 -7.6211 8.4634 -6.3649 0.6385 -16.6017 3.2157 0.3113 1.6045 10.0257 
9.0822 16.7622 5.6584 -7.5947 8.4757 -6.3150 0.4897 -15.3717 4.1192 0.3144 2.2650 9.9687 
9.0938 16.7367 5.8859 -7.6174 8.5507 -6.3413 0.4804 -15.3931 4.3228 0.3139 2.9816 9.8937 
9.1073 16.7150 6.1166 -7.9469 8.6230 -6.3302 0.3857 -14.7755 5.1707 0.3038 3.6884 9.7177 
9.1213 16.6929 6.3546 -7.9351 8.5760 -6.2614 0.3043 -14.3881 6.0558 0.2809 4.5221 9.4008 
9.1370 16.6740 6.5953 -7.5896 8.5097 -6.2268 0.2611 -12.1505 4.2265 0.2193 5.6976 8.6063 
9.1485 16.6720 6.8391 -7.3627 8.3989 -6.3403 0.0935 -7.7967 3.1327 0.1337 7.0717 7.6176 
9.1600 16.6809 7.0849 -7.2973 8.1966 -6.4517 0.0118 -6.4569 4.2121 0.0586 8.3939 6.9754 
9.1733 16.6784 7.3229 -7.2325 7.9978 -6.4044 -0.0585 -4.3627 4.9186 -0.0137 9.6231 6.5065 
9.1819 16.6708 7.5596 -6.8698 7.7899 -6.2433 -0.0931 -2.0684 5.4037 -0.1449 11.2487 5.5105 
9.1906 16.6710 7.7989 -6.2302 7.6560 -6.0319 -0.0866 -1.0386 5.2767 -0.3473 13.1901 3.8022 
9.2014 16.6739 8.0383 -5.6457 7.6155 -5.8697 -0.0529 -0.6600 4.1549 -0.5977 15.2477 1.5532 
9.2105 16.6736 8.2747 -5.0947 7.4708 -5.6303 -0.0182 0.2528 2.6533 -0.9105 17.5952 -1.4751 
9.2214 16.6731 8.5018 -4.6339 7.1675 -5.2933 0.0003 1.0095 1.3921 -0.7816 16.4801 -0.7125 
9.2402 16.6786 8.7277 -4.1228 6.8639 -5.0261 0.0023 0.9087 0.6724 -0.8449 17.1911 -0.5634 
9.2624 16.6947 8.9622 -3.6921 6.5765 -4.8039 0.0004 0.3761 0.1797 -0.9473 18.3966 -0.0189 
9.2840 16.7203 9.1955 -3.5090 6.2966 -4.7198 -0.0002 -0.1472 -0.3770 -1.0793 19.6212 -0.0749 
9.3090 16.7510 9.4146 -2.9199 6.0571 -4.8510 0.0006 -0.6225 -0.6967 -1.1940 20.0837 -2.0295 
9.3369 16.7842 9.6275 -1.8410 5.8713 -4.9965 0.0048 -1.2483 -0.7111 -1.2897 20.6707 -3.0986 
9.3664 16.8214 9.8444 -0.4810 5.7627 -5.1268 0.0126 -1.9905 -0.6839 -1.3968 21.3813 -4.0689 
9.3975 16.8550 10.0638 0.8112 5.6414 -5.3347 0.0215 -2.6210 -0.6170 -1.4130 21.3349 -5.6152 
9.4264 16.8819 10.2728 1.5841 5.5289 -5.5999 0.0331 -3.2816 -0.5594 -1.1980 19.6348 -8.9174 
9.4480 16.9376 10.4729 2.2213 5.4347 -5.9731 0.0452 -3.8249 -0.7114 -1.1893 19.5702 -8.9723 
9.4616 16.9866 10.6670 2.9148 5.4047 -6.3479 0.0530 -4.1173 -0.9569 -0.7330 16.4021 -12.3283 
9.4741 17.0441 10.8469 3.2321 5.5165 -6.4226 0.0610 -4.4106 -1.0763 -0.4559 14.4337 -13.7322 
9.4923 17.0885 11.0242 3.0645 5.6112 -6.2695 0.0738 -4.8369 -1.3517 -0.1239 11.8850 -15.0423 
9.5082 17.1328 11.2096 2.5134 5.7655 -6.3299 0.0849 -5.1742 -1.7372 0.2347 8.7375 -16.1450 
9.5165 17.1831 11.3904 1.9080 5.9151 -6.5971 0.0961 -5.5049 -1.9221 0.5417 5.7751 -17.1369 
9.5257 17.2398 11.5800 1.6803 5.7702 -6.6877 0.1141 -5.9975 -2.1035 0.6651 4.1413 -17.3210 
9.5406 17.2930 11.7748 1.4734 5.5870 -6.4646 0.1267 -6.3213 -2.2542 0.7321 2.7177 -17.1741 
9.5535 17.3335 11.9650 1.1621 5.5249 -6.0402 0.1340 -6.5014 -2.2579 0.8308 1.2864 -17.4620 
9.5655 17.3652 12.1491 1.2606 5.4832 -5.6249 0.1465 -6.8041 -2.1592 0.8764 0.6334 -17.6277 
9.5848 17.3970 12.3327 1.6953 5.4704 -5.3069 0.1619 -7.1849 -1.8108 0.8819 -0.6848 -17.2024 
9.6017 17.4255 12.5278 1.9026 5.4226 -4.9647 0.1823 -7.6780 -1.5091 0.8552 -2.7976 -16.4095 
9.6097 17.4583 12.7195 1.6899 5.5131 -4.5214 0.1998 -8.0641 -1.4224 0.7944 -4.2109 -15.6234 
9.6150 17.4858 12.9012 1.4744 5.5892 -4.0194 0.2127 -8.3552 -1.2786 0.7374 -5.5137 -15.0001 
9.6207 17.4903 13.0904 1.3138 5.3769 -3.5812 0.2398 -8.9194 -1.1370 0.6561 -7.0186 -14.2625 
9.6286 17.4923 13.2818 1.0442 5.2850 -3.0980 0.2803 -9.6494 -1.2094 0.5447 -8.0773 -13.2750 
9.6339 17.5013 13.4669 0.6449 5.4030 -2.5416 0.3092 -10.1123 -1.3707 0.4324 -8.9713 -12.2806 
9.6266 17.5062 13.6606 0.0492 5.3228 -2.1766 0.3506 -10.7461 -1.5782 0.3515 -9.7908 -11.6420 
9.6379 17.4989 13.8463 0.5226 5.3801 -1.5532 0.3909 -11.2784 -2.0478 0.2509 -10.2565 -10.6564 
9.6296 17.4837 14.0375 0.5974 5.4665 -1.1135 0.4213 -11.7068 -2.1503 0.1288 -11.1653 -9.5975 
9.6779 17.4617 14.2097 1.1678 5.1457 -0.1561 0.4490 -12.0089 -2.7708 -0.0203 -11.3863 -7.6882 
9.6542 17.4309 14.4143 1.5683 5.1545 -0.0170 0.4866 -12.4549 -3.3679 -0.0722 -11.9607 -7.3490 
9.6424 17.4000 14.6078 1.4851 5.0966 0.3226 0.5212 -12.8565 -4.1244 -0.1315 -12.6459 -7.0227 
9.6488 17.3755 14.7989 1.1134 4.9506 0.7137 0.5805 -13.5672 -4.5405 -0.2023 -12.9747 -6.2139 
9.6523 17.3515 14.9935 1.2104 4.8408 1.0758 0.6482 -14.3390 -4.9445 -0.2801 -13.1377 -5.0475 
9.6475 17.3315 15.1872 1.4668 4.8451 1.4620 0.6914 -14.8118 -5.4898 -0.3553 -13.4302 -3.9702 
9.6408 17.3211 15.3771 1.5638 4.9021 1.7625 0.7004 -14.9103 -5.6535 -0.3796 -13.5341 -3.6141 
9.6320 17.3154 15.5622 1.7804 4.9958 1.9906 0.7040 -14.9479 -5.5682 -0.4007 -13.5984 -3.2527 
9.6276 17.2991 15.7573 2.1107 5.1318 2.3619 0.6930 -14.8375 -5.8898 -0.4905 -13.8616 -1.5078 
9.6279 17.2787 15.9596 2.3295 5.3256 2.8448 0.6589 -14.5062 -6.5048 -0.5358 -14.5288 -1.6625 
9.6257 17.2607 16.1569 2.5692 5.5804 3.2402 0.6280 -14.2290 -7.0708 -0.5927 -15.2024 -1.5849 
9.6212 17.2490 16.3571 2.7716 5.8560 3.6129 0.6072 -14.0652 -7.5358 -0.6318 -15.6872 -1.6208 
9.6013 17.2370 16.5358 2.7453 6.1367 3.9597 0.5507 -13.4484 -7.5469 -0.6725 -16.4873 -2.2915 
9.5814 17.2109 16.7082 3.0661 6.3191 4.2606 0.4902 -12.7741 -7.6267 -0.7533 -17.7870 -3.0683 
9.5916 17.1851 16.9463 3.9512 6.2041 4.6281 0.4506 -12.3616 -7.8741 -0.8513 -18.7704 -3.0166 
9.5846 17.1655 17.1639 3.3552 6.3799 4.6062 0.2980 -10.2237 -7.1379 -0.9234 -20.0068 -3.9755 
9.5807 17.1372 17.3856 3.5198 6.2872 4.7535 0.3046 -10.3855 -7.3947 -1.1513 -22.2970 -4.3985 
9.5806 17.1114 17.6032 4.0014 6.3526 5.0418 0.3027 -10.4342 -7.6553 -1.2753 -22.8474 -3.4932 
9.5765 17.0896 17.8200 4.1199 6.4461 5.2348 0.2968 -10.4692 -8.0330 -1.3825 -23.2997 -2.6386 
9.5687 17.0710 18.0365 4.0065 6.4639 5.3987 0.2818 -10.4039 -8.4418 -1.4776 -23.6392 -1.7034 
9.5570 17.0503 18.2547 4.0321 6.4392 5.4442 0.2645 -10.3187 -8.8389 -1.5848 -24.0951 -0.7678 
9.5474 17.0203 18.4754 4.1393 6.3495 5.3397 0.2351 -10.0959 -9.2644 -1.6877 -24.5599 0.0980 
9.5453 16.9851 18.6920 4.3258 6.2756 5.2436 0.1915 -9.7076 -9.7104 -1.6912 -24.4170 0.6316 
9.5454 16.9468 18.9088 4.6113 6.1670 5.2143 0.1450 -9.2787 -10.1271 -1.5633 -23.4762 0.5832 
9.5380 16.9132 19.1357 4.7674 6.1447 5.1460 0.0982 -8.8318 -10.5014 -1.4080 -22.4165 0.1065 
9.5253 16.8873 19.3672 4.9547 6.1298 4.9377 0.0393 -8.1299 -10.7445 -1.2912 -21.6297 -0.3822 
